<?xml version="1.0" standalone="no"?>
<!DOCTYPE svg PUBLIC "-//W3C//DTD SVG 20010904//EN"
 "http://www.w3.org/TR/2001/REC-SVG-20010904/DTD/svg10.dtd">
<svg version="1.0" xmlns="http://www.w3.org/2000/svg"
 width="200.000000pt" height="200.000000pt" viewBox="0 0 200.000000 200.000000"
 preserveAspectRatio="xMidYMid meet">

<g transform="translate(0.000000,200.000000) scale(0.100000,-0.100000)"
fill="#000000" stroke="none">
<path d="M840 1986 c-338 -63 -598 -270 -733 -584 -109 -255 -94 -568 40 -822
57 -109 108 -174 204 -264 252 -233 614 -311 949 -204 265 85 497 301 599 559
89 226 88 505 -3 728 -105 259 -341 475 -607 556 -145 44 -316 55 -449 31z
m400 -116 c234 -68 433 -235 540 -455 74 -152 85 -202 84 -390 0 -148 -2 -166
-28 -245 -51 -153 -114 -257 -222 -364 -248 -248 -604 -322 -935 -195 -103 40
-188 96 -282 188 -190 184 -276 399 -264 666 4 93 11 139 32 205 106 328 355
548 695 614 14 2 88 3 165 1 107 -2 158 -8 215 -25z"/>
<path d="M1275 1446 c-753 -294 -861 -338 -882 -362 -54 -60 -16 -101 136
-152 63 -21 118 -45 122 -53 5 -8 25 -68 45 -134 51 -166 56 -175 102 -175 32
0 45 8 87 51 79 80 71 81 192 -12 127 -97 162 -108 211 -63 31 29 33 36 116
459 83 420 84 431 67 455 -28 38 -70 35 -196 -14z m118 -113 c-53 -285 -150
-737 -158 -740 -10 -3 -347 251 -353 265 -1 4 91 91 204 192 195 175 224 205
224 229 0 17 -31 41 -53 41 -12 -1 -148 -81 -301 -179 l-279 -178 -109 36
c-59 19 -108 38 -108 42 0 6 918 368 936 369 8 0 7 -22 -3 -77z m-493 -591 c0
-9 -43 -52 -52 -52 -9 0 -11 74 -2 83 7 6 54 -21 54 -31z"/>
</g>
</svg>
